# xmcd
#
# Track frame offsets:
#	150
#	17211
#	34335
#	52598
#	65774
#	80306
#	101069
#	117392
#	137450
#	156341
#	173201
#	192776
#	210959
#
# Disc length: 3079 seconds
#
# Revision: 5
# Processed by: cddbd v1.5.2PL0 Copyright (c) Steve Scherf et al.
# Submitted via: EasyCDDAExtractor 15.3.0.1
#
DISCID=a90c050d
DTITLE=Luis Fonsi - Exitos 98 - 06
DYEAR=2006
DGENRE=Latin
TTITLE0=Tu Amor
TTITLE1=No Lo Digas Mas
TTITLE2=Nada Es Para Siempre
TTITLE3=Por Una Mujer
TTITLE4=Me Matas
TTITLE5=Quien Te Dijo Eso
TTITLE6=Abrazar La Vida
TTITLE7=Quisiera Poder Olvidarme De Ti
TTITLE8=Imaginame Sin Ti
TTITLE9=No Te Cambio Por Ninguna
TTITLE10=Mi Sueño
TTITLE11=Perdoname
TTITLE12=Si Tu Quisieras
EXTD=
EXTT0=
EXTT1=
EXTT2=
EXTT3=
EXTT4=
EXTT5=
EXTT6=
EXTT7=
EXTT8=
EXTT9=
EXTT10=
EXTT11=
EXTT12=
PLAYORDER=
